<svg width="24" height="24" viewBox="0 0 24 24"><path d="M15.8774 2.5L14.9779 10.878L13.4436 3.81458L8.63304 4.81567L10.1666 11.8786L3.23114 13.3213L4.45613 18.9633L16.6524 21.5L19.4416 15.3692L20.7689 3.00348L15.8774 2.5ZM12.0235 14.6537C11.7721 14.8792 11.4396 14.8584 11.0868 14.7435C10.7347 14.629 10.5781 14.2121 10.7116 13.7081C10.8109 13.334 11.2788 13.2778 11.5129 13.2739C11.6019 13.2724 11.6893 13.29 11.7701 13.3257C11.9356 13.3991 12.2158 13.5556 12.2727 13.7942C12.3547 14.1385 12.2757 14.4275 12.0243 14.653L12.0235 14.6537ZM15.5544 15.0425C15.3718 15.3531 14.8922 15.3942 14.4203 15.1682C14.1023 15.0156 14.1048 14.6273 14.1396 14.3906C14.158 14.2615 14.2112 14.1396 14.2936 14.0375C14.4072 13.8967 14.5968 13.713 14.8159 13.7074C15.1722 13.6981 15.4788 13.8546 15.652 14.1378C15.826 14.42 15.739 14.7312 15.5559 15.0425H15.5544Z"/></svg>